/* XPM */
static char *e5caae1a173c4ca49155c9d27308a885o1waLgc7GERxKK0S[] = {
/* columns rows colors chars-per-pixel */
"64 64 208 2 ",
"   c #4F371F",
".  c #4F3924",
"X  c #533C28",
"o  c #5F4A39",
"O  c #634A34",
"+  c #6B5337",
"@  c #745D43",
"#  c #785D42",
"$  c #66544A",
"%  c #786244",
"&  c #7B654B",
"*  c #786A55",
"=  c #7F7667",
"-  c #866C4F",
";  c #89714F",
":  c #836D53",
">  c #8C7153",
",  c #86755A",
"<  c #8B765A",
"1  c #8B795C",
"2  c #937554",
"3  c #9B7B55",
"4  c #947C5B",
"5  c #9C7F5E",
"6  c #837665",
"7  c #8D7B65",
"8  c #867B6A",
"9  c #8C7D6B",
"0  c #937D64",
"q  c #907F6B",
"w  c #8F806B",
"e  c #958465",
"r  c #9B8463",
"t  c #948169",
"y  c #9A856A",
"u  c #9C8A6C",
"i  c #8E8374",
"p  c #958571",
"a  c #968974",
"s  c #9D8C73",
"d  c #958A7C",
"f  c #9C8E7A",
"g  c #9D917C",
"h  c #9A9077",
"j  c #A28664",
"k  c #A18967",
"l  c #A88A64",
"z  c #A38C6B",
"x  c #AA8C68",
"c  c #AE906C",
"v  c #B1936D",
"b  c #A48F72",
"n  c #A88F72",
"m  c #A48F7A",
"M  c #A49274",
"N  c #AA9475",
"B  c #AB9977",
"V  c #A5947B",
"C  c #AA947A",
"Z  c #AC9A7B",
"A  c #B19671",
"S  c #B19C76",
"D  c #B39C7C",
"F  c #BB9E7A",
"G  c #B5A27D",
"H  c #BCA27B",
"J  c #9A8982",
"K  c #9E9684",
"L  c #A49582",
"P  c #A59A84",
"I  c #AC9C83",
"U  c #A59B8C",
"Y  c #AA9D8B",
"T  c #B29E82",
"R  c #B99F85",
"E  c #B39E8B",
"W  c #AB9A93",
"Q  c #ADA18D",
"!  c #B4A284",
"~  c #BCA484",
"^  c #BCA985",
"/  c #B4A48B",
"(  c #BAA58B",
")  c #BDAA8C",
"_  c #B7A88B",
"`  c #AEA494",
"'  c #AFA898",
"]  c #B2A493",
"[  c #BBA691",
"{  c #B4A996",
"}  c #BCAC93",
"|  c #B5AD9C",
" . c #BBAC9C",
".. c #BFB094",
"X. c #BCB29D",
"o. c #B9AEA3",
"O. c #BCB2A3",
"+. c #BEB4A8",
"@. c #BEB0B0",
"#. c #C0A685",
"$. c #C3AA84",
"%. c #C3AC8D",
"&. c #CCAF8F",
"*. c #C3B18D",
"=. c #CBB38E",
"-. c #C3AD92",
";. c #C8AE93",
":. c #C2AD9C",
">. c #C4B294",
",. c #CBB494",
"<. c #CCBA95",
"1. c #C4B49B",
"2. c #CBB499",
"3. c #C6B99F",
"4. c #CDBA9C",
"5. c #D3BA95",
"6. c #D3BD9C",
"7. c #D9BC9E",
"8. c #C2B5A3",
"9. c #C3B8A6",
"0. c #CCBBA2",
"q. c #C5BBAB",
"w. c #CEBDAB",
"e. c #D2BDA3",
"r. c #C4BDB1",
"t. c #CABFB4",
"y. c #CFC19A",
"u. c #D5C19D",
"i. c #DDC39F",
"p. c #CEC2AB",
"a. c #CEC0A6",
"s. c #D5C2A3",
"d. c #DAC4A4",
"f. c #DECBA6",
"g. c #D3C3AA",
"h. c #DBC6A9",
"j. c #D7C9A9",
"k. c #DDCAAC",
"l. c #CDC3B3",
"z. c #CDC4B9",
"x. c #C4C0B8",
"c. c #D4C4B1",
"v. c #D7CBB6",
"b. c #DCCCB2",
"n. c #D3CCBC",
"m. c #D6C9BA",
"M. c #E3C7A6",
"N. c #E2CBA5",
"B. c #E2CCAC",
"V. c #EACDAB",
"C. c #E3D1AD",
"Z. c #EED1AF",
"A. c #E4CEB1",
"S. c #E5D2B3",
"D. c #EAD2B4",
"F. c #EBDAB6",
"G. c #E5D5BC",
"H. c #ECD6B9",
"J. c #EDDBBD",
"K. c #E7D9BC",
"L. c #F1DCBC",
"P. c #C9C6C1",
"I. c #D5CEC2",
"U. c #D9CEC3",
"Y. c #D3C6C0",
"T. c #DDD3C4",
"R. c #DDD5CA",
"E. c #DCD8CD",
"W. c #DEDBD4",
"Q. c #E4D5C3",
"!. c #ECDBC2",
"~. c #E1D5C9",
"^. c #E2DBCC",
"/. c #EADDCA",
"(. c #E6DDD2",
"). c #E8DED3",
"_. c #EEDFD8",
"`. c #EBE0CE",
"'. c #F5E3C5",
"]. c #F8E5C4",
"[. c #F8E7CF",
"{. c #EFE8D6",
"}. c #EDE6DB",
"|. c #EEE8DB",
" X c #EBE4D4",
".X c #F3E5D4",
"XX c #F6EAD5",
"oX c #F3E4D9",
"OX c #F1E9DC",
"+X c #FDF1DB",
"@X c #EFEFED",
"#X c #EDEAE5",
"$X c #F5EEE2",
"%X c #F6EAEC",
"&X c #F7F3E7",
"*X c #FBF3E4",
"=X c #FFF8E7",
"-X c #F5F4EC",
";X c #FBF5EB",
":X c #FFFBED",
">X c #F5F5F3",
",X c #FAF5F3",
"<X c #F7F9F6",
"1X c #FEFCF4",
"2X c #F4F6FA",
"3X c #FBF6FB",
"4X c #F6FCFC",
"5X c #FEFEFE",
/* pixels */
"5X5X5X5X5X5X5X5X5X5X5X5X5X5X5X5X5X5X5X5X2X1X1X:X:XXX.XG.XX=X:X1X1X3X5X5X5X1X3X5X1X5X5X5X5X5X5X5X5X5X5X5X5X5X5X5X5X5X5X5X5X5X5X5X",
"5X5X5X5X5X5X5X5X5X5X5X5X5X5X5X5X5X5X>X5X5X1X1X(.Q h V {  .:.n.1X1X5X1X<X5X5X1X5X5X5X5X5X5X5X5X5X5X5X5X5X5X5X5X5X5X5X5X5X5X5X5X5X",
"5X5X5X5X5X5X5X5X5X5X5X5X5X5X5X5X5X5X5X<X<X1X(.8 a / 2.k.9.9.9.q.#X5X5X3X5X5X5X5X5X5X5X5X5X5X5X5X5X5X5X5X5X5X5X5X5X5X5X5X5X5X5X5X",
"5X5X5X5X5X5X5X5X5X5X5X5X5X5X5X5X3X5X5X3X1XE.6 9 E ( ! 1.;.9.w. .P.5X5X5X5X<X5X5X5X5X5X5X5X5X5X5X5X5X5X5X5X5X5X5X5X5X5X5X5X5X5X5X",
"5X5X5X5X5X5X5X5X5X5X5X5X5X5X5X5X1X5X1X1X1Xr.6 g ( %.R %.e.A.G.q.x.4X5X5X5X4X5X5X5X5X5X5X5X5X5X5X5X5X5X5X5X5X5X5X5X5X5X5X5X5X5X5X",
"5X5X5X5X5X5X5X5X5X5X5X5X5X5X5X5X5X2X5X,X1X^.d w 0 Z %.#.e.M.B.9.W.5X4X4X5X5X5X3X5X5X5X5X5X5X5X5X5X5X5X5X5X5X5X5X5X5X5X5X5X5X5X5X",
"5X5X5X5X5X5X5X5X5X5X5X5X5X5X5X5X2X5X5X-X1X|.w a T D Z A #.R Z 8.&X5X5X5X5X5X5X5X5X5X5X5X5X5X3X5X5X5X5X5X5X5X5X5X5X5X5X5X5X5X5X5X",
"5X5X5X5X5X5X5X5X5X5X5X5X5X5X5X5X5X5X2X5X4X1XE.* , n D C 2.H.2.1.&X1X1X5X5X5X5X5X5X5X5X5X3X5X5X5X5X5X5X5X5X5X5X5X5X5X5X5X5X5X5X5X",
"5X5X5X5X5X5X5X5X5X5X5X5X5X5X5X5X4X4X4X5X5X1X1X`.e : 1 r Z 2.Z Q ;X1X4X<X5X5X>X5X5X5X5X5X5X5X5X5X5X5X5X5X5X5X5X5X5X5X5X5X5X5X5X5X",
"5X5X5X5X5X5X5X5X5X5X5X5X5X5X5X5X5X4X4X5X4X-X=X:XQ.1 < 1 u ) / p.1X=X1X1X<X<X1X5X5X5X5X5X3X5X5X5X5X5X5X5X5X5X5X5X5X5X5X5X5X5X5X5X",
"5X5X5X5X5X5X5X5X5X5X5X5X5X5X5X5X2X4X4X2X5X4X1X=X!.* < % @ e 1.+X:X:X:X1X1X1X1X3X5X5X5X5X5X5X5X5X5X5X5X5X5X5X5X5X5X5X5X5X5X5X5X5X",
"5X5X5X5X5X5X5X5X5X5X5X5X5X5X5X5X5X4X5X4X5X-X1X:X3.< y r y T } 1.9.9.+.l.(.&X5X5X5X5X5X5X5X5X5X5X5X5X5X5X5X5X5X5X5X5X5X5X5X5X5X5X",
"5X5X5X5X5X5X5X5X5X5X5X5X5X5X5X5X5X2X5X<X5X1X*Xl.7 e N %.%.6.1./ M 9 K ` | r.1X1X5X5X5X5X5X5X5X5X5X5X5X5X5X5X5X5X5X5X5X5X5X5X5X5X",
"5X5X5X5X5X5X5X5X5X5X5X5X5X5X5X5X3X5X5X1X1X&XX.7 *.4.$.6.h.B.0.} g.} 0.Q.^.Y.1X1X5X5X5X5X5X5X5X5X5X5X5X5X5X5X5X5X5X5X5X5X5X5X5X5X",
"5X5X5X5X5X5X5X5X5X5X5X5X5X5X5X5X5X1X5X1XI.' a I M $.=.i.e.,.e.k.e.4.0.v. Xn.}.<X4X5X5X5X5X5X5X5X5X5X5X5X5X5X5X5X5X5X5X5X5X5X5X5X",
"5X5X5X5X5X5X5X5X5X5X5X5X5X5X5X5X5X1X1X XK 8.1.C R D =.=.5.,.d.A.k.d.A.v.m.l.1X1X1X5X5X5X5X5X5X5X5X5X5X5X5X5X5X5X5X5X5X5X5X5X5X5X",
"5X5X5X5X5X5X5X5X5X5X5X5X5X5X5X5X5X3X1Xm.L d.4.=.=.*.7.d.k.s.H.B.D.s.4.g.9.OX1X3X5X5X5X5X5X5X5X5X5X5X5X5X5X5X5X5X5X5X5X5X5X5X5X5X",
"5X5X5X5X5X5X5X5X5X5X5X5X5X5X5X5X3X5X1Xm.-.B.u.N.i.h.d.4.k.S.A.J.Z.6.,.g.9.OX1X1X5X5X3X5X5X3X5X5X5X5X5X5X5X5X5X5X5X5X5X5X5X5X5X5X",
"5X5X5X5X5X5X5X5X5X5X5X5X5X5X5X5X5X5X,X~.V 4.=.i.~ <.6.e.s.k.h.].d.6.j.!.v.*X1X1X5X5X5X5X5X5X5X5X5X5X5X5X5X5X5X5X5X5X5X5X5X5X5X5X",
"5X5X5X5X5X5X5X5X5X5X5X5X5X5X5X5X3X5X1X:XP >.d.u.,.~ R e.B.S.f.f.u.*.%.1.| |.1X5X5X5X5X5X5X5X5X3X5X5X5X5X5X5X5X5X5X5X5X5X5X5X5X5X",
"5X5X5X5X5X5X5X5X5X5X5X5X5X5X5X5X5X5X1X1X+.h a.6.0.;.C 6.S.C.y.<.u.) B s Y &X1X1X5X5X5X5X5X5X5X5X5X5X5X5X5X5X5X5X5X5X5X5X5X5X5X5X",
"5X5X5X5X5X5X5X5X5X5X5X5X5X5X5X5X5X5X5X1X=XK 1.b.e.-.: # e c G f.d.d.a. .X.1X1X1X5X5X5X5X5X5X5X5X5X5X5X5X5X5X5X5X5X5X5X5X5X5X5X5X",
"5X5X5X5X5X5X5X5X5X5X5X5X5X5X5X5X4X4X5X1X1Xo.8 f 7 X   + n =.<.C.k.C.b...| =X1X1X5X5X5X5X5X5X5X5X5X5X5X5X5X5X5X5X5X5X5X5X5X5X5X5X",
"5X5X5X5X5X5X5X5X5X5X5X5X5X5X5X5X5X5X4X1X<X1Xo.l.w.. & M G <.=.<.s.<.) Q | :X1X4X5X5X5X5X5X5X5X5X5X5X5X5X5X5X5X5X5X5X5X5X5X5X5X5X",
"5X5X5X5X5X5X5X5X5X5X5X5X5X5X5X5X5X4X5X5X4X1X:X:Xp.0 C R $.5.^ y.u.s.y.O.X.{.1X1X1X5X5X5X5X5X5X5X5X5X5X5X5X5X5X5X5X5X5X5X5X5X5X5X",
"5X5X5X5X5X5X5X5X5X5X5X5X5X5X5X5X5X5X5X4X5X1X1X*Xp s ;.;.%.s.S.F.C.J.C.a.l.T.1X-X5X5X5X5X5X5X5X5X5X5X5X5X5X5X5X5X5X5X5X5X5X5X5X5X",
"5X5X5X5X5X5X5X5X5X5X5X5X5X5X5X5X5X5X5X4X4X1X<XT.9 -.2.#.~ <.D.k.s.C.j.a.v.9.1X1X1X5X5X5X5X5X5X5X5X5X5X5X5X5X5X5X5X5X5X5X5X5X5X5X",
"5X5X5X5X5X5X5X5X5X5X5X5X5X5X5X5X5X5X5X2X5X<X1X| m ;.&.&.>.4.C.j...C.K.a.p.X.=X:X3X1X1X5X5X5X4X5X5X5X5X5X5X5X5X5X5X5X5X5X5X5X5X5X",
"5X5X5X5X5X5X5X5X5X5X5X5X5X5X5X5X5X5X5X2X5X4X-XP m ;.7.M.M.h.b.K.J.L.'.k.a.{ n.1X1X1X5X5X5X1X5X5X5X5X5X5X5X5X5X5X5X5X5X5X5X5X5X5X",
"5X5X5X5X5X5X5X5X5X5X5X5X5X5X5X5X5X3X5X5X5X1X&Xg [ d.V.M.B.A.b.K.].F.'.J.b.Q i 9.1X1X1X1X5X5X3X5X5X5X5X5X5X5X5X5X5X5X5X5X5X5X5X5X",
"5X5X5X5X5X5X5X5X5X5X5X5X5X5X5X5X5X3X5X5X5X1XW.g 3.h.M.i.M.H.Q.Q.J.L.b.M M Q 8 i OX1X5X1X5X1X3X5X5X5X5X5X5X5X5X5X5X5X5X5X5X5X5X5X",
"5X5X5X5X5X5X5X5X5X5X5X5X5X5X5X5X5X3X5X5X<X1Xn.h 2.V.V.Z.D.G./.G.<.! G u ) } a L R.;X5X1X5X5X1X5X5X5X5X5X5X5X5X5X5X5X5X5X5X5X5X5X",
"5X5X5X5X5X5X5X5X5X5X5X5X5X5X5X5X3X5X3X<X1X;X6 I %.M.V.M.6.4.1.! ! ! r ) ^ M ..{ U 1X3X5X5X5X1X5X5X5X5X5X5X5X5X5X5X5X5X5X5X5X5X5X",
"5X5X5X5X5X5X5X5X5X5X5X5X5X5X5X5X5X5X5X5X1XO.6 m %.,.&.,.~ Z / >.2.R %.~ G <._ Q z.3X5X3X5X5X1X4X5X5X5X5X5X5X5X5X5X5X5X5X5X5X5X5X",
"5X5X5X5X5X5X5X5X5X5X5X5X5X5X5X5X5X2X5X1X1Xz.Y [ ( #.F ~ S M _ 0.R R ~ S C.y.j...$X,X5X3X5X5X5X3X5X5X5X5X5X5X5X5X5X5X5X5X5X5X5X5X",
"5X5X5X5X5X5X5X5X5X5X5X5X5X5X5X5X3X5X5X>X1XOXY [ R #.~ ~ %.2.a.1.E ;.z s.f.*...{ *X3X5X3X5X5X1X5X1X5X5X5X5X5X5X5X5X5X5X5X5X5X5X5X",
"5X5X5X5X5X5X5X5X5X5X5X5X5X5X5X5X5X5X5X5X5X$XW / [ ;.%.;.d.b.g.I ;.C *.f.G ^ Z V T.1X3X3X5X5X5X1X5X5X5X5X5X5X5X5X5X5X5X5X5X5X5X5X",
"5X5X5X5X5X5X5X5X5X5X5X5X5X5X5X5X5X5X3X5X1X,XOX{ R 0.d.d.u.,...! T N S.^ ..y...Q 9.,X5X5X5X5X4X5X5X5X5X5X5X5X5X5X5X5X5X5X5X5X5X5X",
"5X5X5X5X5X5X5X5X5X5X5X5X5X5X5X5X5X5X5X<X1X1X1X9.E 0.B.M.>.! / _ m B.<._ *.y.*._ ] (.5X5X5X5X5X5X5X5X5X5X5X5X5X5X5X5X5X5X5X5X5X5X",
"5X5X5X5X5X5X5X5X5X5X5X5X5X5X5X5X5X5X5X4X5X,X:XoXE 1.2.2.) _ ) I R h.^ *.y...y.X.Y t.1X1X1X5X5X1X5X5X5X5X5X5X5X5X5X5X5X5X5X5X5X5X",
"5X5X5X5X5X5X5X5X5X5X5X5X5X5X5X5X5X2X5X5X<X5X1XI.g 1./ ) _ Z } M 2.,.~ -.4.C.J.1.Q O.1X1X5X5X5X5X5X5X5X5X5X5X5X5X5X5X5X5X5X5X5X5X",
"5X5X5X5X5X5X5X5X5X5X5X5X5X5X5X5X5X<X5X5X5X1X1X}.P a E ~ e b I ! } ) Z %.k.d.,./ P Y ;X1X1X5X5X5X5X5X5X5X5X5X5X5X5X5X5X5X5X5X5X5X",
"5X5X5X5X5X5X5X5X5X5X5X5X5X5X5X5X5X5X5X5X5X5X1X1X*Xp.1.C < ! ! I G b D d.S.S.S.0.P g ~.1X1X5X3X5X5X5X5X5X5X5X5X5X5X5X5X5X5X5X5X5X",
"5X5X5X5X5X5X5X5X5X5X5X5X5X5X5X5X5X5X5X5X4X5X1X1X:X| Y , M 4.M C C M } d.6.D.[.b./ L 9.:X1X1X5X5X5X5X5X5X5X5X5X5X5X5X5X5X5X5X5X5X",
"5X5X5X5X5X5X5X5X5X5X5X5X5X5X5X5X5X5X5X4X5X4X4X1XR.* a M 0.1.1 ! u Z _ ) <.D.'.!.>.Q Q OX1X1X5X5X5X5X5X5X5X5X5X5X5X5X5X5X5X5X5X5X",
"5X5X5X5X5X5X5X5X5X5X5X5X5X5X5X5X5X5X5X4X5X4X5X1X$XY Q v.3.1 B ) h u B ! >.k.!.K.} / a ^.1X1X5X2X5X5X5X5X5X5X5X5X5X5X5X5X5X5X5X5X",
"5X5X5X5X5X5X5X5X5X5X5X5X5X5X5X5X5X1X5X5X5X4X5X4X:X{. .3.u & >.! G e B ! Z >.4.-._ / h x.=X1X5X5X5X5X5X5X5X5X5X5X5X5X5X5X5X5X5X5X",
"5X5X5X5X5X5X5X5X5X5X5X5X5X5X5X5X5X5X5X5X4X5X5X1X1X$X8.P 7 I ! ! B B G M T ) T ) ) / V { |.4X3X5X5X5X5X5X5X5X5X5X5X5X5X5X5X5X5X5X",
"5X5X5X5X5X5X5X5X5X5X5X5X5X5X5X5X5X5X5X5X1X5X4X1X5X5XW W L ;.M *.>.G ) M ! B Z ~ ) >.V P  X1X1X5X5X5X5X5X5X5X5X5X5X5X5X5X5X5X5X5X",
"5X5X5X5X5X5X5X5X5X5X5X5X5X5X5X5X3X5X5X1X4X4X4X5X5X%X@.J  ./ >.u.) M ! I ) ! N Z %.>.! L `.1X5X3X5X5X5X5X5X5X5X5X5X5X5X5X5X5X5X5X",
"5X5X5X5X5X5X5X5X5X5X5X5X5X5X5X5X5X5X5X5X1X4X5X4X5X5X%X8.E I <.<.d.G ! Z _ V V ~ 2.} E a U.1X5X5X5X5X5X5X5X5X5X5X5X5X5X5X5X5X5X5X",
"5X5X5X5X5X5X5X5X5X5X5X5X5X5X5X5X5X5X5X5X5X4X4X5X3X5X3X_. .g.d.,.M e V B ! h C ) e.-.[ V U.1X5X5X5X5X5X5X5X5X5X5X5X5X5X5X5X5X5X5X",
"5X5X5X5X5X5X5X5X5X5X5X5X5X5X5X5X5X5X5X4X4X4X4X5X5X3X3X,Xc.( ~ Z _ / 1.} ( I ( -.e.( :.:.).3X5X5X5X5X5X5X5X5X5X5X5X5X5X5X5X5X5X5X",
"5X5X5X5X5X5X5X5X5X5X5X5X5X5X5X5X5X4X4X4X4X4X4X5X5X,X_.~.( C 5.N.d.e.>.I V T [ -.2.} :.w.~.1X3X5X5X5X5X5X5X5X5X5X5X5X5X5X5X5X5X5X",
"5X5X5X5X5X5X5X5X5X5X5X5X5X5X5X5X5X5X5X4X4X5X5X5X1XY.$ o X # l z z V n m V T R C 2.2.[ w.t.,X1X5X5X5X5X5X5X5X5X5X5X5X5X5X5X5X5X5X",
"5X5X5X5X5X5X5X5X5X5X5X5X5X5X5X5X5X5X5X4X4X5X5X5X1X8.X O - - x 4 <.s.h.k.d.2.%.C %.0.-.c.q.;X5X5X5X5X5X5X5X5X5X5X5X5X5X5X5X5X5X5X",
"5X5X5X5X5X5X5X5X5X5X5X5X5X5X5X5X5X5X5X5X5X5X1X1X,XE - + ; c F c r %.C.F.S.d.>.~ F h.~ 1.O.$X5X1X5X5X5X5X5X5X5X5X5X5X5X5X5X5X5X5X",
"5X5X5X5X5X5X5X5X5X5X5X5X5X5X5X5X5X5X5X5X5X1X1X1X*Xm - > 2 3 v $.x D G ^ 6.d.6.=.#.,.2./ 9 z.1X1X5X5X5X5X5X5X5X5X5X5X5X5X5X5X5X5X",
"5X5X5X5X5X5X5X5X5X5X5X5X5X5X5X5X5X1X1X5X5X1X1X1X*X0 > 5 j 3 l F A G G G G G $.*.#.$.A.g.Y l.1X<X1X5X5X5X5X5X5X5X5X5X5X5X5X5X5X5X",
"5X5X5X5X5X5X5X5X5X5X5X5X5X5X5X5X5X1X5X5X5X5X5X1X.X7 > 3 l v v A x r r k B G H H ;.5.D.A.9.O.:X1X5X5X5X5X5X5X5X5X5X5X5X5X5X5X5X5X",
"5X5X5X5X5X5X5X5X5X5X5X5X5X5X5X5X1X5X5X5X5X5X5X1XQ.7 0 > 4 0 j j 4 r u z z k S =.5.&.;.-.{ U ,X1X5X5X5X5X5X5X5X5X5X5X5X5X5X5X5X5X",
"5X5X5X5X5X5X5X5X5X5X5X5X5X5X5X5X5X1X5X5X5X5X5X1XQ.I R n n z z n N r 4 5 z z r r 0 n R T w J 1X5X5X5X5X5X5X5X5X5X5X5X5X5X5X5X5X5X",
"5X5X5X5X5X5X5X5X5X5X5X5X5X5X5X1X4X4X5X4X5X5X5X1X).w.e.b.D.B.h.e.,.,.;.2.2.-.~ $.#.n 4 s ] R.1X,X5X5X5X5X5X5X5X5X5X5X5X5X5X5X5X5X",
"5X5X5X5X5X5X5X5X5X5X5X5X5X5X5X5X5X5X4X5X4X5X5X1X}./.K.G.D.H.!.!.L.H.V.A.D.D.B.A.Z.A.e.w.oX1X,X5X5X5X5X5X5X5X5X5X5X5X5X5X5X5X5X5X"
};
