/* XPM */
static char *_528a48b880748419f65a7488782d631rD3Wm9c0Jz71wz6r[] = {
/* columns rows colors chars-per-pixel */
"64 64 241 2 ",
"   c #030305",
".  c #050608",
"X  c #070809",
"o  c #0B0B0B",
"O  c #0A0807",
"+  c #110F0D",
"@  c #13110E",
"#  c #0D0E11",
"$  c #141413",
"%  c #1A1612",
"&  c #1C1915",
"*  c #1C1B1B",
"=  c #161719",
"-  c #0F1012",
";  c #211B14",
":  c #221D1A",
">  c #24211D",
",  c #2C241C",
"<  c #33281D",
"1  c #1E1F21",
"2  c #252323",
"3  c #2A2622",
"4  c #2C2924",
"5  c #2C2C2B",
"6  c #322B25",
"7  c #322E29",
"8  c #3A2E24",
"9  c #35312C",
"0  c #3B352C",
"q  c #3C3429",
"w  c #3E3933",
"e  c #393835",
"r  c #231F20",
"t  c #42392E",
"y  c #44382B",
"u  c #433C33",
"i  c #423D39",
"p  c #483E33",
"a  c #4B4136",
"s  c #46423C",
"d  c #4B453C",
"f  c #4B463C",
"g  c #51463B",
"h  c #53493C",
"j  c #5B4D3C",
"k  c #574835",
"l  c #5B513F",
"z  c #66543E",
"x  c #4A4641",
"c  c #4E4A42",
"v  c #474544",
"b  c #534C43",
"n  c #5A4F42",
"m  c #524F4B",
"M  c #5C5144",
"N  c #56524A",
"B  c #5C544B",
"V  c #595449",
"C  c #5A5652",
"Z  c #635444",
"A  c #625649",
"S  c #645B4D",
"D  c #6B5D4C",
"F  c #6A5844",
"G  c #715E49",
"H  c #645D52",
"J  c #6A5F51",
"K  c #655E58",
"L  c #6C604E",
"P  c #73624D",
"I  c #7B654D",
"U  c #6C6254",
"Y  c #6D6559",
"T  c #6B6559",
"R  c #736554",
"E  c #796653",
"W  c #756957",
"Q  c #7B6A55",
"!  c #746B5B",
"~  c #7B6D5B",
"^  c #726659",
"/  c #7D715E",
"(  c #77705F",
")  c #756D62",
"_  c #7C7263",
"`  c #7A7369",
"'  c #74716C",
"]  c #836D54",
"[  c #836F59",
"{  c #84725C",
"}  c #8A755C",
"|  c #8C755A",
" . c #937A5D",
".. c #886B4A",
"X. c #837563",
"o. c #857965",
"O. c #8C7B64",
"+. c #847A6B",
"@. c #8B7C6B",
"#. c #857665",
"$. c #927D63",
"%. c #947F68",
"&. c #877D71",
"*. c #8E816D",
"=. c #9A8265",
"-. c #93836C",
";. c #9B866C",
":. c #9D896E",
">. c #958166",
",. c #8D8273",
"<. c #938571",
"1. c #968975",
"2. c #9B8B74",
"3. c #958B7B",
"4. c #9B8E7A",
"5. c #988773",
"6. c #9E917B",
"7. c #A38B6C",
"8. c #A48867",
"9. c #B4946F",
"0. c #A38E73",
"q. c #A48F77",
"w. c #A49175",
"e. c #AC9474",
"r. c #A5947B",
"t. c #AB967A",
"y. c #AC997D",
"u. c #AB9A7A",
"i. c #B39C7B",
"p. c #B59975",
"a. c #BDA17D",
"s. c #B7A17F",
"d. c #C1A37C",
"f. c #958C83",
"g. c #9C9283",
"h. c #8D8884",
"j. c #AC9C83",
"k. c #AB9D89",
"l. c #A49783",
"z. c #B29E84",
"x. c #B09F89",
"c. c #A99F91",
"v. c #ADA08C",
"b. c #AFA086",
"n. c #B4A285",
"m. c #BBA583",
"M. c #B4A48A",
"N. c #BAA68A",
"B. c #BCAA8C",
"V. c #B9A88A",
"C. c #ACA495",
"Z. c #BBAC93",
"A. c #B6AB96",
"S. c #BDB29B",
"D. c #BEB096",
"F. c #BAB3A3",
"G. c #B9AEA3",
"H. c #C3AA85",
"J. c #CBAD85",
"K. c #C2AD8D",
"L. c #C4A986",
"P. c #CBB18D",
"I. c #C7B18D",
"U. c #D3B48B",
"Y. c #D8B88C",
"T. c #C2AE91",
"R. c #C5B294",
"E. c #CBB593",
"W. c #C3B49A",
"Q. c #CBB79A",
"!. c #CDBB9C",
"~. c #C8B99B",
"^. c #D4BA94",
"/. c #DABC93",
"(. c #D2BC9B",
"). c #D4B994",
"_. c #E2BE90",
"`. c #CABCA1",
"'. c #C4B9A4",
"]. c #D2BEA2",
"[. c #DBC39C",
"{. c #D8C19A",
"}. c #E2C59B",
"|. c #E6CA9D",
" X c #E8C797",
".X c #F8D69E",
"XX c #ECC896",
"oX c #CDC2A7",
"OX c #D4C2A4",
"+X c #DBC5A2",
"@X c #DEC9A5",
"#X c #DBCBAC",
"$X c #D6C7AA",
"%X c #D7CDB6",
"&X c #DBD2BC",
"*X c #DCD2AE",
"=X c #E4CBA4",
"-X c #EBCDA2",
";X c #E3CDAB",
":X c #E4CAA5",
">X c #EDD2A5",
",X c #E5D2AD",
"<X c #EBD3AB",
"1X c #E9D3A7",
"2X c #F2D6AD",
"3X c #F3D9AD",
"4X c #F7D7A7",
"5X c #E4D3B3",
"6X c #EBD6B3",
"7X c #EBDCBB",
"8X c #E8DAB7",
"9X c #F3DBB3",
"0X c #FADEB2",
"qX c #F2DFBD",
"wX c #E1CEB2",
"eX c #F6E1B5",
"rX c #FDE4B5",
"tX c #F5E3BB",
"yX c #FBE5BB",
"uX c #FEEBBC",
"iX c #FFE8B6",
"pX c #FFF1BE",
"aX c #F6E1B4",
"sX c #D7D2C4",
"dX c #E4DBC5",
"fX c #ECE3C9",
"gX c #FDECC4",
"hX c #F9E8C6",
"jX c #FFF2C4",
"kX c #FFF4CB",
"lX c #FEF9CC",
"zX c #FAEDD3",
"xX c #FFF4D3",
"cX c #FFFCD4",
"vX c #FDF5DD",
"bX c #FFFDDB",
"nX c #E9E2D2",
"mX c #FFFEE3",
"MX c #FDFCEA",
"NX c #FFFFF5",
"BX c #F5EEE0",
/* pixels */
"o . . o # - . . X   o - . o . o o   . . o o         o # . .   o o   O . # o     .   + # . o . # .   . . # O         # # . # . # ",
"o 5 e 9 w . 1 5 1 e - * N 2 e - # e 5 i 2 . e 9 e i # 5 N 5 x . = m 5 B : # e 7 v i   e x e m . = N 5 c # = C e m v # i v v m # ",
"# X.6.4 4 T 6.-.U j.*.s 4 B V.9 # j.*.1 5 ` F.1.1.OXC.N 3 1.].= 9 wXO.: b v.#X5.T.].c.x 3 z.Q.. c 9XJ * T '.;X&.F.`.C.C r z.v.= ",
"# n P * ` r.;.O.B O.*.6.s 0  .* # P h 5 g.M.m.} o.B.I.(.c F 8.o * j.y C ;X(.).5.j.).).R.9 F I   3 ;.6 ` :XL.m.@.x.W.T.].v A D # ",
"= 7 - c r. . . .D =.O.:.G * 4 * = 7 = T V.8.p.>.#.u.0.a.[ * 9 = 2 7 + l./.d.U.0.K.L.a.U.! 2 0 $ 7 r 2 j.P.p.J.@.N.Q.z.T.K 2 e r ",
"1 0 N 4.U 0.;.Q a ] ;.I B g.i 4 * 0 f.3.o.a.9.Q z ;.9.G ,.A.n > 9 t k.1.e.Y.d.I ;.Y.Y.] Z.k.n : t n $XX.t.U.9.S @.T.P.P v.3.u 1 ",
"$ = &.m.+.P l b w m k g 4.a.K   o e '.W.o.E J B C ! z R $X<XB   # Y 2X/.%.| R A ) %.| 5././.x o   3.2X).[ G +.K Y X.G f.].].5 O ",
"  e N.i.s.u +.w.! B.N J e.e.2.+   ) '.'.y.s N.0.t.+XB y.[.-Xl.  = N._. X7.n <Xz.P.:XR E.J. X@.  = OX:X-XO.) 2X2.K.W.K ].(.#X)   ",
"  C m.p.| W H.8.! s.y.Y 7.e.u.>   3.D.'.[ ;.H.;.5./.N.%./.|.].o r (.Y._.[ P._.p.L.XXL.e._._.z.  i ;X}./.#.:X/.%.z./.z.l.+X].q.. ",
"X +.m.m.~ 0.d.e.} a.m.o.>.p.a.7 o r.N.T.Q K.P.7.r._./.7.-X>X2X= 9 2X>XY.q.-X.Xz.)..X-Xe.XXXX_.  S 0X2XJ.j.2X-Xz.).|.E.0.:X:XN.# ",
"o B _ ~ g L Q P h E { A M Q E > o B G A p E E Z G $.O.n O.q.%.+ 6 %.%.| D 8.8.G [ 7.$.Z $.$.[ O t %.l.P Z %.%.Z E #.#.A &.%.U # ",
"X ) k.r.U g.k.4.T j.b.+.*.v.b.4 # g.l.<.) v.M.@.X.T.R.E A.].W.$ i ;X].T.l.].+X0.A.+X].@.Q.].N.. A dX;Xz.@.].L.[ Z.].Q.#.&XwXA.# ",
"X ` V.M.#.Z.J.z.@.T.(.<.6.R.V.q + x.T.N.&.].+Xj.@.E.E.:.;X>X2X: s hX0X_.T.0X4XE.6X0XyXM.2X4XY.O S hX-Xm.l.}.).%.:X2X+Xk.hX6XQ.$ ",
"o *.B.D.@.N.J.K.+.T.].4.6.V.B.w + k.Z.N.&.].wXx.@.Q.E.0.:XyX9X: s gX0X:XE.0X0XQ.5XyXuXN.yX0X}.o S hX-XT.N.9X:Xl.Q.+X).A.hX0X].$ ",
"# +.u.w.[ j.T.N.X.B.Z.#.@.w.z.q # q.j.q.@.`.W.2.O.T.L.{ z./.).% i 6X6XP.t.1X:Xz.E.-X[.0.:X:XJ.O n J.d.%.%./.U.@.z.J.m.%.].+Xl.+ ",
". C ,.h.C ' f.+.B f.3.H K &.,.2 # h.g.f.Y g.c.X.b +.&.S &.-.3.% 5 C.C.3.Q r.:.G ;.k.v.Y g.5.&.O i %.l.#.&.G.G.&.f.k.f.^ k.k.) O ",
"  C.vXvXA.dXMXnXC.vXzX'.'.hXvXx = BXMXBXG.BXmX&XF.bXxX'.zXhXqX: s NXbX7X'.cXuXE.fXmXMXF.bXcXhXO +.NXvXsXsXNXNX'.MXNXxX'.vXbX5X- ",
". C.tXhXc.%XhXsXv.hXyXZ.W.2XhXg = dXhXhXG.hXzX%XF.kXzXF.dXgX6X% s mXxX5X'.kXrXR.sXkXzXF.zXuX7X+ ' NXuX;XsXNXMX'.dXvXfXA.hXgX%X= ",
". g.<X<Xg.'.-X+Xg.2X0XM.W.<XhXx = dX6XdXv.7XhX`.Z.eXtXS.7XhXhX; i cXgX*X'.lXiX~.dXpXxXF.hXuX7X+ ` mXgX;XsXmXbX'.dXkXtXZ.gXgX%X$ ",
". ,.[.[.5.Z./.E.3.}.:Xz.A.:X6Xx = :X;X5Xl.@X1XW.n.,X5Xv.1X0XqX; f hXtX@XS.kXiXoXnXpXjXF.hXjX8Xo ) cXuX=XsXbXbXS.7XuX9XZ.gXgX#X$ ",
". -.[.(.<.m./.P.<./.}.j.Z.:X9Xd = :X1X5Xj.:X|.R.D.6X8Xv.;X0XqX: s uXeX{.S.pXiXoXdXpXuXS.uXkX7X+ ` lXpX@X%XcXbXW.7XuXeXB.gXgX$X$ ",
". o.E.K.O.z.J.L.<.J./.q.N.:X6Xd $ OX|.@Xl.:X|.B.Z.<X9Xb.+X3X3X: s eX3X^.Z.pXiX~.&XpXeXZ.iXpX8Xo ` lXiX@XoXlXlXD.7XjX8XZ.gXkX#X$ ",
"X O.P.).O.m.U.E.2.U.Y.t.R.<XyXx = 7X9X<Xb.3XiXoXR.9X0Xx.:XyX0X: f iXiX[.~.lXpX{.fXcXcXS.lXpXyXO ~ bXlX<X%XmXmXoXhXcXgXB.bXbXwX$ ",
"X d Q Q g R E G h E [ Z J O.>.3 o #.-.>.B } >.E E 2.>.Z ] 8. .@ , w.w.| L r.u.~ ;.b.b.L 6.r.} O a u.y.[ o.v.j.~ w.n.t.P 7.%.P o ",
"  b 2.5.n ,.6.*.Y M.V._ X.j.M.q + k.B.0.R N.T.1.<.Q.R.X.A.E.N.$ w *X{.N.%.OX;X;.M.@X{./ !.{.n.  c #X*Xr.l.#X+X-.W.*XoX<.$X!.6.o ",
"  _ I.m.( b.B.b.<.^.+Xr.i.U.{.a = 5X-X/.4.<X2XQ.T.yXgXM.<X3X0X: f lXyX:XT.jXiXT.8XlXeX6.jXjX1X  ~ mXcX{.oXmXcXD.fXcXhXZ.cXcX#X+ ",
"  / K.m./ b.v.b.3.E.Q.r.j.U.[.d $ #X;X].4.;X6XT.R.kXvXZ.5X9X7X2 s kXhX@XZ.9XyXE.&XjXtXr.tXpX*XO ` MXkX{.oXcXgXZ.7XkX,XS.kXlX%X@ ",
"  ( E.K./ Z.R.M.3.OX(.6.z./.[.h # OX;X(.q.5XhX!.'.vXmXZ.8X9XhX4 f kXyX@XZ.xXjXW.8XlXtXr.jXpXfXO ) NXkXOXW.cXgXD.7XtX@XS.kXlX%X@ ",
"  ( I.Z.O.M.I.B.1.!.!.6.y.^.}.h # ].5XOXl.5XqXQ.W.bXmXS.7XeXgX4 f uXrX}.D.lXgXR.&XlXuXb.pXiX7XO ) NXcX*XoXcXcX'.7XhX5XS.lXcX&X+ ",
"  ! B.m.O.M.I.V.,.Q.!.2.y.^.[.g # `.OXQ.l.-X2XQ.S.xXbXA.8XyXhX3 f rX4X{.B.uXiXK.5XpXuXM.tXiX8XO ! NXkX*XoXmXmX'.7XkXtXA.xXcXsX+ ",
"  ~ u.u.o.u.u.b.<.R.E.<.2.^.|.f o R.K.T.l.-X-XE.Z.hXkXB.7XgXhX: f rX4X[.K.rXrXn.*XpXiXn.pXpX7XO ! mXpX,XoXcXbXoXtXlXeXS.lXbXsX+ ",
". S =.=.P | >.;./ y.u.O.P  .:.q # ;.:.e.$.Q./.x.y.+X@Xw.(.<X(.$ 0 >X XH.7. X X7.I.>X{.| {.1XE.  T lXeX$XB.3X,XV.@X<X{.b.zXvX!.o ",
". e S A w g M k w L U h n U U > O b R W u ! X.D Z O.5.Z D X.U X > { { Z p P F t Z [ O.p Q @.M   8 ] ;.G z  .{ F P ] { l ;.>.D o ",
"  ^ m.w.E 2.s.w./ V.Z.<.l.Q.$Xd . N.J.m.@.[.+XM.x.;X6Xx.+X3X|.& 0 9X0XJ.q.0X-X%.E.hX0Xz.gXbX{.  J iXiXm.M.lXkXB.,XiX3Xn.kXgXOXo ",
"  ( :.8.! :.8.7.+.M.n.1.4.m.OXb o M.a.p.2.[.U.m.M.<X5XM.+X|.>X> 0 yX3XH.w.0X4X7.Q.|._.y.3XrX[.  ( pX.X{.oXpXlXS.=XiX3XD.kXkX$Xo ",
"  Y 7.7.( :.8.w.+.M.n.4.6.m.$Xc o T.J.H.3.+X/.T.A.<XhXM.@X<X<X> u eX>XJ.y.0X3Xl.P.}._.j.9X0X=X  ! pX4X{.oXuXjXD.,XpXtXD.kXkX$X+ ",
". L ;.0.( :.7.:.` n.y.<.2.K.+Xf o K.U.a.3.OX}.B.N.<XqXN.[.|.3X3 u tX1Xd.t.0X0Xi.T.}.).j.3X9X[.  Y pX.X{.{.uXjX'.8XpXeXV.tXgXoX+ ",
"  L :.:.T :.w.;._ y.u.*.5.V.oXf o N.d.i.*.(.[.N.A.:X7Xx.{.XX2X, 0 rX>XP.y.0X3Xw.T././.q.>X4X[.  L iX.X{.~.kXjXoX8XpXeXn.<XjXoXo ",
"  S =.>.U *.:.*.( 6.2._ -.i.W.s o u.9.e.*.I.E.y.j.[.8Xk.P.{.1X, u >X XH.t.>X-Xw.i.Y./.2.|. X).  S 4XXX^.~.uXyXR.=XaX1Xy.aXiX~.o ",
"X D :.:.P >.0.:.( u.u./ *.n.~.s o u.9.e.@.E.P.y.t.+X6Xz.I.^.|., q |. XJ.y.<X-Xt.K.}.U.t.>X>X^.  L iX.X|.I. X|.R.1XiXrXZ.iXjXOXO ",
"X 0 b M t M M h s M A a l W W > o l l j f ~ Q F M } O.D Q } Q @ > ] I F j =. .j E } ] j 7.7.I   q >.7.| P ....P >.8.$.I u.i.Q O ",
"  s Y U u A U H s ) W b H +.+.> o _ *.W h *.o.U L o.5.S X.;.R o & <.{ R A O.W u D 0.@.p 2.2.D . 4 >.>.L o.B.M._ -.y.<.n } $.Q X ",
"  B -.%.B _ O.X.U <.>.R _ >.6.9 o 2.u.<.W t.u.2./ s.R.*.6.V.w.@ 7 (.H.i.@.L.i.Q w.P.e.{ [.}.N.  M =XU.e.n.2X1Xb.;X0X>Xl.2X9XR.O ",
"X M #.X.n W ~ Q B *.{ U ^ @.1.9 O +.*.o.U w.2.*.W r.!./ -.u.:.- 4 L.i.7./ w.e.R :.e.%.W m.m.2.  V P.a.:.r.[.[.g.!./.(.r.:X-XV.o ",
"  m X.{ c U Q R m X.{ J U *.,.7 o ( _ ( B -.<.+.W :.Z.( _ { / & 3 N.p.-.U ;.w.U ;.8.%.D r.t.@.  f a.e.$.3.^.!.6.T.U.E.4.$X[.M.o ",
"O x _ ~ m K Q U c / [ B H ` *.4 o ( _ ( n @.+._ L *.b.! / Y ( % 4 j.w.*.U O.1.J ~ $. .M 2.5.X.  s :.=.[ *.v.b.` x.m.i.&.R.P.r.o ",
"  b / ! s J W J x ! Q V C ( *.4 X ( +.! b _ / ~ L *.6.U ( W _ % , 2.=.} S >.-.S Q | } A ;.;._   u -. .! ) 2.3.) q.y.q.#.x.i.5.o ",
"  f W U s A W J f W E b V ( ` 7 X T _ T h W ! ^ Z { 2.L Q ( _ % > >.>.~ S O.O.S W } Q A -.-._   w O.} ! ~ -.-.^ #.;.5.! w.7.+.. ",
"O s D S w h S A s A A f f L T > O N S A a D L l j I O.l F L ~ @ > } | P A } { n D ] G d [ { G   9 { { Y Y *.>.T { } @.L >.:.Q O ",
". 2 u q * 4 9 9 2 u s 5 4 t 0 %   e u w 3 w w 5 9 s a 6 w u q o + 0 9 , 4 0 u 4 6 q 6 r t p 9   & a a q 0 s a 7 a f a 7 s f q X ",
". 0 j k 0 H H V f T T c V ! ( > O T ! U c ( ! U B T ! c ! ! _ $ & T U b c +.#.m J ! U n _ _ K   7 ( ! V V ! ! f L o.( V +.` S   ",
"X q k a 0 H T L f T U l l U ! 4   K ! U f ( { U N ! _ N ! _ X.$ & ( ! S c *.%.H ! ,.X.N +.X.)   9 ` ! L L ( ( n T / / C _ _ U o ",
"X 0 j k 0 U U U f Y R b h U W 4 . U ! R f ~ { H V ( ) c ! X._ $ * / / L C <.O.H ) ` / V X.[ ^ . 7 _ ( U B / / N U ~ ! N ~ ) H . ",
". u z k w H U L f Y W b b T W 4 . Y ~ Y x ~ { J N / ~ m ! { +.% & / / L A @.O.A T @.X.B X.} ~ . 9 _ ( U B / / b T ! ^ b Y ) B o ",
"  t F l 0 C Y L s Y W b l P W 4 . U ~ R b ~ } J C / _ N ~ o.@.& & ( / L A <.O.J W O.O.B #.#.~ . 9 o.( U B ~ ! b T ! ^ m Y ! C o ",
"o t l j t V L S f R R b c L W 3 . U [ W b Q [ U S X._ M { | O.= & P ~ L H <.$.J _ $.#.A @.#.! O 9 _ ~ L V R E h U ! Y b J Y B   ",
"O y j k u A D J b W R N M R ~ , . ^ ] E B { | Q U O.#.J O.$.0.& & ~ } R U w.=.~ %.;.%.U 5.%.O.  9 #.] J A W W b U / ! V U U B o ",
"X , y q , 0 u 0 9 a a 9 0 a k & O u p g 0 j n g u Z Z u j F Z @ % l l a f G z f n G G p F Z n   , D Z g u j j w h F A u M M s X ",
"  9 s f 4 s c d 7 n b 0 b n V >   N Z Z t h Z p p M A p P R R o & S j y 6 j a 6 p Z n 9 x n c   3 J Z w d Z A t f B b 0 n M q   ",
"X u M h u A W U c ! R M A ~ o.4 . _ [ O.n G I F { q.0.] O.7.j.& & | | G Z =.} j ] %.0.P q.e.$.  p q.0.[ ! 0.q.J @.O.{ S X.#.U   ",
"X d M M a M R J b Q R n B ~ #.6 . W E O.A ] ] E X.q.9.X.$.7.z.* ; | ....I 8.| G %.7.t.E e.t.$.  b 9.8.O.Q 7.7.J O.$.X.S X.X.J O ",
"o g Z Z a D I R h E P n F } $.7 O G ] [ F ..| I } p.a.$.e.d.P.: , 9.8.%.] 9. .] 8.9.p.] 9.p.8.  n J.L.%.=.d.z.[ 0.w.;.R 7.;._ o ",
"X @ % % + % ; & @ % % + % & ; + . % % ; $ ; ; % % , , ; , 8 8 O + , , ; ; 6 < ; , , , ; , 6 , O % y y , 8 p y , 8 8 6 ; 8 8 : O ",
"O X X   o X     o     o . . . . O O . O O O . . O   . O       O O   . . O   O O . .   O       O O                             o "
};
